<svg version="1" xmlns="http://www.w3.org/2000/svg" width="768" height="768" viewBox="0 0 576.000000 576.000000"><path d="M263.5 1.1c-68.6 6.4-131 35.5-178.9 83.5-81.2 81.1-106.3 202-64.4 308.9 35.8 91 116.6 158.3 212.4 176.9 20.7 4 32.5 5.1 55.4 5.1s34.7-1.1 55.4-5.1c114.3-22.2 204.8-112.7 227-227 4-20.7 5.1-32.5 5.1-55.4s-1.1-34.7-5.1-55.4C551.8 136.8 484.5 56 393.5 20.2 371 11.4 349.1 5.8 324.4 2.5c-14.4-2-47.2-2.7-60.9-1.4zm59 51.3c79 12.5 144.3 60.3 179.1 131.1 27.5 56 31.8 119.6 12.3 179.1-11.2 34-29 63.2-54.3 89.2L448.7 463l-15.1-.5c-8.3-.3-21.4-.7-29.1-1-7.7-.3-23-.7-34-1-11-.3-22.4-1-25.2-1.6-2.9-.6-5.7-.7-6.3-.4-.6.4-4.5 0-8.8-.9-8.7-1.8-25.4-4.3-29.2-4.4-3.5-.2-14.7-1.8-20-3.1-2.5-.5-10.4-2.2-17.7-3.7-11.5-2.4-13.2-3-13.7-4.9-.3-1.2-.6-25.6-.6-54.3v-52l44.3-.5c40.2-.4 45-.6 53.5-2.5 13.4-3 21.4-5.8 32.2-11.3 24.8-12.6 41.7-33.4 48.7-59.7 2.3-8.6 2.6-11.6 2.7-27.2 0-14.8-.3-18.8-2.1-26.2-4.6-18-12.1-31.6-24.3-43.9-15.9-16-35.2-25.5-62.4-30.6-6.6-1.3-21.5-1.6-82.3-2l-74.3-.4V433l-7.6-.7c-7.6-.6-7.6-.6-6.5 1.5 1.3 2.4 2.6 2.8 3.6 1.2.3-.6 2.7-.9 5.3-.7 4 .2 4.7.6 5 2.5.3 2 0 2.2-2.2 1.6-2.2-.5-2.6-.3-2.6 1.4 0 2.3-4.1 4.3-4.8 2.3-.2-.6-1-1.1-1.8-1.1s-1.4-.7-1.4-1.6c0-2.3-2.4-1.1-2.8 1.4-.4 2.5-3.2 3.1-3.2.7 0-1.8-.1-1.8-3.5-.5-1.8.7-2.5 1.5-2.1 2.5.4 1.2.2 1.3-1.4.2-1.1-.6-2-1.7-2-2.4 0-.9-1.6-1.3-4.5-1.3-3.9 0-4.7.4-5.7 2.5-1.3 2.9-2.1 3.1-3.9.9-.8-.9-2.1-1.3-3.5-1-1.3.4-2.6.1-2.9-.5-.5-.7-1.3-.5-2.6.7-1.2 1.1-2.7 1.4-4.5 1-1.4-.4-3.2-.2-3.9.4-1 .8-1.9.8-3.6 0-1.6-.9-3.2-.9-6.5 0-3.9 1.1-4.7 1.1-6.4-.5-1-.9-1.6-2.3-1.3-3.1.3-.9-.2-1.4-1.5-1.4-2.2 0-8.5-7.8-19.2-24-13.5-20.3-26.8-52.7-31.9-77.7-10.8-52.7-4-106.9 19.5-154.2 23.9-48.3 61-85.3 108.9-108.7 27-13.2 53.1-20.5 85-23.8 8.6-.9 44.4.3 54 1.8zm12 131.6c18.9 6.6 30.7 23.5 32.2 46.1 1.7 25.1-11 45.2-33 52.6l-8.2 2.7-38 .1h-38l-.3-52.3-.2-52.3 39.2.3c38.8.3 39.4.4 46.3 2.8zM185 441.4c0 .7-.6 1.9-1.4 2.5-1.1.9-1.2.6-.8-1.4.5-2.6 2.2-3.5 2.2-1.1zm66.2 7.8c-.7.7-1.2.8-1.2.2 0-1.4 1.2-2.6 1.9-1.9.2.3-.1 1.1-.7 1.7zm5.3-.2c-.3.5-1 1-1.6 1-.5 0-.9-.5-.9-1 0-.6.7-1 1.6-1 .8 0 1.2.4.9 1zm9.5 24c0 .5-.4 1-1 1-.5 0-1-.5-1-1 0-.6.5-1 1-1 .6 0 1 .4 1 1zm-50 4.6c0 .8-.7 1.4-1.5 1.4-1.5 0-2.1-2.1-.9-3.3 1-.9 2.4.2 2.4 1.9zm63.5-.6c.3.5-.1 1-.9 1s-1.8-.5-2.1-1c-.3-.6.1-1 .9-1s1.8.4 2.1 1zm-83.5 4c0 .4-.6 1.3-1.4 1.9-1.1 1-1.6.8-2.1-.8-.3-1.2-1.1-2.1-1.6-2.1s-.9-.4-.9-.9c0-.6 1.2-.6 3 0 1.7.6 3 1.4 3 1.9zm7.6-1.5c-1 .8-2.3 1.2-2.8.9-1.4-.9.2-2.4 2.5-2.4 2.1.1 2.1.1.3 1.5zm-39.1 1.5c.3.5 1.6 1 2.7 1 2.7 0 1.6 1.2-1.4 1.5-1.3.2-3 .6-3.9 1-2.4.9-3.2-1-1.3-2.9 1.8-1.8 3-2 3.9-.6zm17.3.2c4.7 0 6.2.3 6.2 1.4 0 .8-.4 1.4-1 1.4-.5 0-1.1.8-1.1 1.7-.1 1.7-.2 1.7-.6 0-.3-1.3-1-1.6-2.4-1.2-1.1.4-2.6.1-3.4-.5-.8-.6-2.7-1-4.2-.9-1.5.2-3.4 0-4.1-.5-1.9-1.2-.3-2.8 2.1-2 1.2.4 5 .7 8.5.6zm-24.8 1.3c0 .8-.9 1.5-2 1.5-2.2 0-2.7-1.5-.7-2.3 2.1-.9 2.7-.7 2.7.8zm16 3.5c0 .5-.4 1-1 1-.5 0-1-.5-1-1 0-.6.5-1 1-1 .6 0 1 .4 1 1zm79 0c0 .5-.4 1-1 1-.5 0-1-.5-1-1 0-.6.5-1 1-1 .6 0 1 .4 1 1zm-57.5.9c.7 1.2-1.2 2.4-2.5 1.6-1.1-.7-.4-2.5 1-2.5.5 0 1.1.4 1.5.9zm12 .1c-.3.5-1.7 1-3.1 1-1.4 0-2.2-.4-1.9-1 .3-.6 1.7-1 3.1-1 1.4 0 2.2.4 1.9 1zm-23.2 2.5c.1.5-1.3 1.1-3 1.3-3.1.3-4.2-.6-2.6-2.2 1-1 5.3-.3 5.6.9z"/><path d="M122.8 439.1c-1.9 1.2 6.8 1.4 9.1.3 2.1-1.1 1.7-1.2-2.9-1.1-2.8.1-5.6.5-6.2.8zM112.7 439.7c-1.5 1.4-.6 2.3 2.2 2.3 1.6 0 3.1-.6 3.5-1.5.4-1.1-.2-1.5-2.3-1.5-1.5 0-3.1.3-3.4.7z"/></svg>